<?xml version="1.0" encoding="UTF-8" standalone="no"?>
<!DOCTYPE svg PUBLIC "-//W3C//DTD SVG 1.1//EN"
 "http://www.w3.org/Graphics/SVG/1.1/DTD/svg11.dtd">
<!-- Generated by graphviz version 7.1.0 (0)
 -->
<!-- Title: G Pages: 1 -->
<svg width="1012pt" height="764pt"
 viewBox="0.00 0.00 1012.00 764.00" xmlns="http://www.w3.org/2000/svg" xmlns:xlink="http://www.w3.org/1999/xlink">
<g id="graph0" class="graph" transform="scale(1 1) rotate(0) translate(4 760)">
<title>G</title>
<polygon fill="white" stroke="none" points="-4,4 -4,-760 1008,-760 1008,4 -4,4"/>
<!-- node0 -->
<g id="node1" class="node">
<title>node0</title>
<ellipse fill="none" stroke="black" cx="173" cy="-738" rx="85.59" ry="18"/>
<text text-anchor="middle" x="173" y="-734.3" font-family="Times,serif" font-size="14.00">JAVA&#45;PROGRAM</text>
</g>
<!-- node1 -->
<g id="node2" class="node">
<title>node1</title>
<ellipse fill="none" stroke="black" cx="173" cy="-666" rx="33.6" ry="18"/>
<text text-anchor="middle" x="173" y="-662.3" font-family="Times,serif" font-size="14.00">class</text>
</g>
<!-- node0&#45;&gt;node1 -->
<g id="edge1" class="edge">
<title>node0&#45;&gt;node1</title>
<path fill="none" stroke="black" d="M173,-719.7C173,-712.41 173,-703.73 173,-695.54"/>
<polygon fill="black" stroke="black" points="176.5,-695.62 173,-685.62 169.5,-695.62 176.5,-695.62"/>
</g>
<!-- node2 -->
<g id="node3" class="node">
<title>node2</title>
<ellipse fill="none" stroke="black" cx="39" cy="-594" rx="38.99" ry="18"/>
<text text-anchor="middle" x="39" y="-590.3" font-family="Times,serif" font-size="14.00">public</text>
</g>
<!-- node1&#45;&gt;node2 -->
<g id="edge2" class="edge">
<title>node1&#45;&gt;node2</title>
<path fill="none" stroke="black" d="M149.66,-652.81C128.75,-641.89 97.81,-625.72 73.96,-613.26"/>
<polygon fill="black" stroke="black" points="75.71,-610.23 65.23,-608.7 72.47,-616.44 75.71,-610.23"/>
</g>
<!-- node3 -->
<g id="node4" class="node">
<title>node3</title>
<ellipse fill="none" stroke="black" cx="173" cy="-594" rx="77.19" ry="18"/>
<text text-anchor="middle" x="173" y="-590.3" font-family="Times,serif" font-size="14.00">ArrayProgram</text>
</g>
<!-- node1&#45;&gt;node3 -->
<g id="edge3" class="edge">
<title>node1&#45;&gt;node3</title>
<path fill="none" stroke="black" d="M173,-647.7C173,-640.41 173,-631.73 173,-623.54"/>
<polygon fill="black" stroke="black" points="176.5,-623.62 173,-613.62 169.5,-623.62 176.5,-623.62"/>
</g>
<!-- node4 -->
<g id="node5" class="node">
<title>node4</title>
<ellipse fill="none" stroke="black" cx="327" cy="-594" rx="59.29" ry="18"/>
<text text-anchor="middle" x="327" y="-590.3" font-family="Times,serif" font-size="14.00">ClassBody</text>
</g>
<!-- node1&#45;&gt;node4 -->
<g id="edge4" class="edge">
<title>node1&#45;&gt;node4</title>
<path fill="none" stroke="black" d="M198.08,-653.6C221.51,-642.95 256.94,-626.84 284.73,-614.21"/>
<polygon fill="black" stroke="black" points="285.94,-617.51 293.59,-610.18 283.04,-611.14 285.94,-617.51"/>
</g>
<!-- node5 -->
<g id="node6" class="node">
<title>node5</title>
<ellipse fill="none" stroke="black" cx="327" cy="-522" rx="100.18" ry="18"/>
<text text-anchor="middle" x="327" y="-518.3" font-family="Times,serif" font-size="14.00">MethodDeclaration</text>
</g>
<!-- node4&#45;&gt;node5 -->
<g id="edge5" class="edge">
<title>node4&#45;&gt;node5</title>
<path fill="none" stroke="black" d="M327,-575.7C327,-568.41 327,-559.73 327,-551.54"/>
<polygon fill="black" stroke="black" points="330.5,-551.62 327,-541.62 323.5,-551.62 330.5,-551.62"/>
</g>
<!-- node6 -->
<g id="node7" class="node">
<title>node6</title>
<ellipse fill="none" stroke="black" cx="167" cy="-450" rx="38.99" ry="18"/>
<text text-anchor="middle" x="167" y="-446.3" font-family="Times,serif" font-size="14.00">public</text>
</g>
<!-- node5&#45;&gt;node6 -->
<g id="edge6" class="edge">
<title>node5&#45;&gt;node6</title>
<path fill="none" stroke="black" d="M290.29,-504.94C264.78,-493.78 230.86,-478.94 205.06,-467.65"/>
<polygon fill="black" stroke="black" points="206.5,-464.46 195.94,-463.66 203.7,-470.88 206.5,-464.46"/>
</g>
<!-- node7 -->
<g id="node8" class="node">
<title>node7</title>
<ellipse fill="none" stroke="black" cx="260" cy="-450" rx="36.29" ry="18"/>
<text text-anchor="middle" x="260" y="-446.3" font-family="Times,serif" font-size="14.00">static</text>
</g>
<!-- node5&#45;&gt;node7 -->
<g id="edge7" class="edge">
<title>node5&#45;&gt;node7</title>
<path fill="none" stroke="black" d="M310.78,-504.05C302.39,-495.29 292.01,-484.45 282.83,-474.86"/>
<polygon fill="black" stroke="black" points="285.64,-472.73 276.19,-467.92 280.58,-477.57 285.64,-472.73"/>
</g>
<!-- node8 -->
<g id="node9" class="node">
<title>node8</title>
<ellipse fill="none" stroke="black" cx="395" cy="-450" rx="80.69" ry="18"/>
<text text-anchor="middle" x="395" y="-446.3" font-family="Times,serif" font-size="14.00">MethodHeader</text>
</g>
<!-- node5&#45;&gt;node8 -->
<g id="edge8" class="edge">
<title>node5&#45;&gt;node8</title>
<path fill="none" stroke="black" d="M343.46,-504.05C351.64,-495.63 361.7,-485.28 370.74,-475.97"/>
<polygon fill="black" stroke="black" points="373.18,-478.49 377.63,-468.87 368.15,-473.61 373.18,-478.49"/>
</g>
<!-- node17 -->
<g id="node18" class="node">
<title>node17</title>
<ellipse fill="none" stroke="black" cx="582" cy="-450" rx="36.29" ry="18"/>
<text text-anchor="middle" x="582" y="-446.3" font-family="Times,serif" font-size="14.00">Block</text>
</g>
<!-- node5&#45;&gt;node17 -->
<g id="edge17" class="edge">
<title>node5&#45;&gt;node17</title>
<path fill="none" stroke="black" d="M380.45,-506.33C427.78,-493.33 495.93,-474.63 539.59,-462.64"/>
<polygon fill="black" stroke="black" points="540.5,-466.02 549.21,-460 538.64,-459.27 540.5,-466.02"/>
</g>
<!-- node9 -->
<g id="node10" class="node">
<title>node9</title>
<ellipse fill="none" stroke="black" cx="251" cy="-378" rx="30.59" ry="18"/>
<text text-anchor="middle" x="251" y="-374.3" font-family="Times,serif" font-size="14.00">void</text>
</g>
<!-- node8&#45;&gt;node9 -->
<g id="edge9" class="edge">
<title>node8&#45;&gt;node9</title>
<path fill="none" stroke="black" d="M362.32,-433.12C339.01,-421.78 307.76,-406.59 284.3,-395.19"/>
<polygon fill="black" stroke="black" points="286.01,-392.13 275.49,-390.91 282.95,-398.43 286.01,-392.13"/>
</g>
<!-- node10 -->
<g id="node11" class="node">
<title>node10</title>
<ellipse fill="none" stroke="black" cx="395" cy="-378" rx="95.58" ry="18"/>
<text text-anchor="middle" x="395" y="-374.3" font-family="Times,serif" font-size="14.00">MethodDeclarator</text>
</g>
<!-- node8&#45;&gt;node10 -->
<g id="edge10" class="edge">
<title>node8&#45;&gt;node10</title>
<path fill="none" stroke="black" d="M395,-431.7C395,-424.41 395,-415.73 395,-407.54"/>
<polygon fill="black" stroke="black" points="398.5,-407.62 395,-397.62 391.5,-407.62 398.5,-407.62"/>
</g>
<!-- node11 -->
<g id="node12" class="node">
<title>node11</title>
<ellipse fill="none" stroke="black" cx="277" cy="-306" rx="33.6" ry="18"/>
<text text-anchor="middle" x="277" y="-302.3" font-family="Times,serif" font-size="14.00">main</text>
</g>
<!-- node10&#45;&gt;node11 -->
<g id="edge11" class="edge">
<title>node10&#45;&gt;node11</title>
<path fill="none" stroke="black" d="M367.03,-360.41C349.52,-350.02 326.9,-336.6 308.72,-325.82"/>
<polygon fill="black" stroke="black" points="310.55,-322.84 300.17,-320.75 306.98,-328.86 310.55,-322.84"/>
</g>
<!-- node12 -->
<g id="node13" class="node">
<title>node12</title>
<ellipse fill="none" stroke="black" cx="421" cy="-306" rx="92.08" ry="18"/>
<text text-anchor="middle" x="421" y="-302.3" font-family="Times,serif" font-size="14.00">FormalParameter</text>
</g>
<!-- node10&#45;&gt;node12 -->
<g id="edge12" class="edge">
<title>node10&#45;&gt;node12</title>
<path fill="none" stroke="black" d="M401.42,-359.7C404.23,-352.15 407.58,-343.12 410.72,-334.68"/>
<polygon fill="black" stroke="black" points="413.92,-336.12 414.12,-325.52 407.35,-333.68 413.92,-336.12"/>
</g>
<!-- node13 -->
<g id="node14" class="node">
<title>node13</title>
<ellipse fill="none" stroke="black" cx="351" cy="-234" rx="89.88" ry="18"/>
<text text-anchor="middle" x="351" y="-230.3" font-family="Times,serif" font-size="14.00">UnannArrayType</text>
</g>
<!-- node12&#45;&gt;node13 -->
<g id="edge13" class="edge">
<title>node12&#45;&gt;node13</title>
<path fill="none" stroke="black" d="M404.05,-288.05C395.54,-279.54 385.06,-269.07 375.68,-259.68"/>
<polygon fill="black" stroke="black" points="378.4,-257.46 368.86,-252.86 373.45,-262.41 378.4,-257.46"/>
</g>
<!-- node16 -->
<g id="node17" class="node">
<title>node16</title>
<ellipse fill="none" stroke="black" cx="490" cy="-234" rx="31.4" ry="18"/>
<text text-anchor="middle" x="490" y="-230.3" font-family="Times,serif" font-size="14.00">args</text>
</g>
<!-- node12&#45;&gt;node16 -->
<g id="edge16" class="edge">
<title>node12&#45;&gt;node16</title>
<path fill="none" stroke="black" d="M437.7,-288.05C446.58,-279.04 457.64,-267.83 467.29,-258.04"/>
<polygon fill="black" stroke="black" points="469.73,-260.54 474.26,-250.97 464.75,-255.63 469.73,-260.54"/>
</g>
<!-- node14 -->
<g id="node15" class="node">
<title>node14</title>
<ellipse fill="none" stroke="black" cx="309" cy="-162" rx="40.09" ry="18"/>
<text text-anchor="middle" x="309" y="-158.3" font-family="Times,serif" font-size="14.00">String</text>
</g>
<!-- node13&#45;&gt;node14 -->
<g id="edge14" class="edge">
<title>node13&#45;&gt;node14</title>
<path fill="none" stroke="black" d="M340.61,-215.7C335.87,-207.78 330.13,-198.23 324.86,-189.44"/>
<polygon fill="black" stroke="black" points="327.89,-187.69 319.75,-180.92 321.89,-191.3 327.89,-187.69"/>
</g>
<!-- node15 -->
<g id="node16" class="node">
<title>node15</title>
<ellipse fill="none" stroke="black" cx="394" cy="-162" rx="27" ry="18"/>
<text text-anchor="middle" x="394" y="-158.3" font-family="Times,serif" font-size="14.00">[</text>
</g>
<!-- node13&#45;&gt;node15 -->
<g id="edge15" class="edge">
<title>node13&#45;&gt;node15</title>
<path fill="none" stroke="black" d="M361.63,-215.7C366.61,-207.58 372.66,-197.74 378.17,-188.76"/>
<polygon fill="black" stroke="black" points="381.03,-190.79 383.29,-180.43 375.07,-187.12 381.03,-190.79"/>
</g>
<!-- node18 -->
<g id="node19" class="node">
<title>node18</title>
<ellipse fill="none" stroke="black" cx="635" cy="-378" rx="126.98" ry="18"/>
<text text-anchor="middle" x="635" y="-374.3" font-family="Times,serif" font-size="14.00">LocalVariableDeclaration</text>
</g>
<!-- node17&#45;&gt;node18 -->
<g id="edge18" class="edge">
<title>node17&#45;&gt;node18</title>
<path fill="none" stroke="black" d="M594.29,-432.76C600.53,-424.53 608.26,-414.32 615.3,-405.02"/>
<polygon fill="black" stroke="black" points="617.87,-407.42 621.12,-397.33 612.29,-403.19 617.87,-407.42"/>
</g>
<!-- node19 -->
<g id="node20" class="node">
<title>node19</title>
<ellipse fill="none" stroke="black" cx="609" cy="-306" rx="27" ry="18"/>
<text text-anchor="middle" x="609" y="-302.3" font-family="Times,serif" font-size="14.00">int</text>
</g>
<!-- node18&#45;&gt;node19 -->
<g id="edge19" class="edge">
<title>node18&#45;&gt;node19</title>
<path fill="none" stroke="black" d="M628.57,-359.7C625.73,-352.04 622.31,-342.85 619.14,-334.3"/>
<polygon fill="black" stroke="black" points="622.46,-333.2 615.7,-325.04 615.9,-335.63 622.46,-333.2"/>
</g>
<!-- node20 -->
<g id="node21" class="node">
<title>node20</title>
<ellipse fill="none" stroke="black" cx="708" cy="-306" rx="53.89" ry="18"/>
<text text-anchor="middle" x="708" y="-302.3" font-family="Times,serif" font-size="14.00">Variables</text>
</g>
<!-- node18&#45;&gt;node20 -->
<g id="edge20" class="edge">
<title>node18&#45;&gt;node20</title>
<path fill="none" stroke="black" d="M653.04,-359.7C662.05,-351.05 673.1,-340.46 682.93,-331.04"/>
<polygon fill="black" stroke="black" points="685.27,-333.64 690.07,-324.19 680.43,-328.59 685.27,-333.64"/>
</g>
<!-- node21 -->
<g id="node22" class="node">
<title>node21</title>
<ellipse fill="none" stroke="black" cx="708" cy="-234" rx="27" ry="18"/>
<text text-anchor="middle" x="708" y="-230.3" font-family="Times,serif" font-size="14.00">=</text>
</g>
<!-- node20&#45;&gt;node21 -->
<g id="edge21" class="edge">
<title>node20&#45;&gt;node21</title>
<path fill="none" stroke="black" d="M708,-287.7C708,-280.41 708,-271.73 708,-263.54"/>
<polygon fill="black" stroke="black" points="711.5,-263.62 708,-253.62 704.5,-263.62 711.5,-263.62"/>
</g>
<!-- node22 -->
<g id="node23" class="node">
<title>node22</title>
<ellipse fill="none" stroke="black" cx="627" cy="-162" rx="107.48" ry="18"/>
<text text-anchor="middle" x="627" y="-158.3" font-family="Times,serif" font-size="14.00">VariableDeclaratorId</text>
</g>
<!-- node21&#45;&gt;node22 -->
<g id="edge22" class="edge">
<title>node21&#45;&gt;node22</title>
<path fill="none" stroke="black" d="M691.99,-219.17C681.53,-210.13 667.58,-198.07 655.28,-187.44"/>
<polygon fill="black" stroke="black" points="657.69,-184.9 647.84,-181.01 653.11,-190.2 657.69,-184.9"/>
</g>
<!-- node25 -->
<g id="node26" class="node">
<title>node25</title>
<ellipse fill="none" stroke="black" cx="833" cy="-162" rx="81.49" ry="18"/>
<text text-anchor="middle" x="833" y="-158.3" font-family="Times,serif" font-size="14.00">ArrayInitializer</text>
</g>
<!-- node21&#45;&gt;node25 -->
<g id="edge25" class="edge">
<title>node21&#45;&gt;node25</title>
<path fill="none" stroke="black" d="M728.36,-221.6C746.16,-211.63 772.49,-196.89 794.28,-184.68"/>
<polygon fill="black" stroke="black" points="795.91,-187.78 802.92,-179.84 792.49,-181.67 795.91,-187.78"/>
</g>
<!-- node23 -->
<g id="node24" class="node">
<title>node23</title>
<ellipse fill="none" stroke="black" cx="555" cy="-90" rx="51.99" ry="18"/>
<text text-anchor="middle" x="555" y="-86.3" font-family="Times,serif" font-size="14.00">numbers</text>
</g>
<!-- node22&#45;&gt;node23 -->
<g id="edge23" class="edge">
<title>node22&#45;&gt;node23</title>
<path fill="none" stroke="black" d="M609.57,-144.05C600.68,-135.42 589.72,-124.76 579.96,-115.27"/>
<polygon fill="black" stroke="black" points="582.46,-112.82 572.85,-108.36 577.58,-117.84 582.46,-112.82"/>
</g>
<!-- node24 -->
<g id="node25" class="node">
<title>node24</title>
<ellipse fill="none" stroke="black" cx="652" cy="-90" rx="27" ry="18"/>
<text text-anchor="middle" x="652" y="-86.3" font-family="Times,serif" font-size="14.00">[</text>
</g>
<!-- node22&#45;&gt;node24 -->
<g id="edge24" class="edge">
<title>node22&#45;&gt;node24</title>
<path fill="none" stroke="black" d="M633.18,-143.7C635.91,-136.04 639.19,-126.85 642.25,-118.3"/>
<polygon fill="black" stroke="black" points="645.48,-119.64 645.55,-109.05 638.89,-117.29 645.48,-119.64"/>
</g>
<!-- node26 -->
<g id="node27" class="node">
<title>node26</title>
<ellipse fill="none" stroke="black" cx="833" cy="-90" rx="111.28" ry="18"/>
<text text-anchor="middle" x="833" y="-86.3" font-family="Times,serif" font-size="14.00">VariableInitializerList</text>
</g>
<!-- node25&#45;&gt;node26 -->
<g id="edge26" class="edge">
<title>node25&#45;&gt;node26</title>
<path fill="none" stroke="black" d="M833,-143.7C833,-136.41 833,-127.73 833,-119.54"/>
<polygon fill="black" stroke="black" points="836.5,-119.62 833,-109.62 829.5,-119.62 836.5,-119.62"/>
</g>
<!-- node27 -->
<g id="node28" class="node">
<title>node27</title>
<ellipse fill="none" stroke="black" cx="689" cy="-18" rx="27" ry="18"/>
<text text-anchor="middle" x="689" y="-14.3" font-family="Times,serif" font-size="14.00">2</text>
</g>
<!-- node26&#45;&gt;node27 -->
<g id="edge27" class="edge">
<title>node26&#45;&gt;node27</title>
<path fill="none" stroke="black" d="M798.87,-72.41C775.18,-60.89 743.83,-45.66 720.69,-34.41"/>
<polygon fill="black" stroke="black" points="722.26,-31.28 711.73,-30.05 719.2,-37.57 722.26,-31.28"/>
</g>
<!-- node28 -->
<g id="node29" class="node">
<title>node28</title>
<ellipse fill="none" stroke="black" cx="761" cy="-18" rx="27" ry="18"/>
<text text-anchor="middle" x="761" y="-14.3" font-family="Times,serif" font-size="14.00">3</text>
</g>
<!-- node26&#45;&gt;node28 -->
<g id="edge28" class="edge">
<title>node26&#45;&gt;node28</title>
<path fill="none" stroke="black" d="M815.57,-72.05C806.07,-62.82 794.21,-51.29 783.97,-41.33"/>
<polygon fill="black" stroke="black" points="786.53,-38.94 776.92,-34.48 781.65,-43.96 786.53,-38.94"/>
</g>
<!-- node29 -->
<g id="node30" class="node">
<title>node29</title>
<ellipse fill="none" stroke="black" cx="833" cy="-18" rx="27" ry="18"/>
<text text-anchor="middle" x="833" y="-14.3" font-family="Times,serif" font-size="14.00">5</text>
</g>
<!-- node26&#45;&gt;node29 -->
<g id="edge29" class="edge">
<title>node26&#45;&gt;node29</title>
<path fill="none" stroke="black" d="M833,-71.7C833,-64.41 833,-55.73 833,-47.54"/>
<polygon fill="black" stroke="black" points="836.5,-47.62 833,-37.62 829.5,-47.62 836.5,-47.62"/>
</g>
<!-- node30 -->
<g id="node31" class="node">
<title>node30</title>
<ellipse fill="none" stroke="black" cx="905" cy="-18" rx="27" ry="18"/>
<text text-anchor="middle" x="905" y="-14.3" font-family="Times,serif" font-size="14.00">7</text>
</g>
<!-- node26&#45;&gt;node30 -->
<g id="edge30" class="edge">
<title>node26&#45;&gt;node30</title>
<path fill="none" stroke="black" d="M850.43,-72.05C859.92,-62.82 871.79,-51.29 882.03,-41.33"/>
<polygon fill="black" stroke="black" points="884.34,-43.96 889.07,-34.48 879.46,-38.94 884.34,-43.96"/>
</g>
<!-- node31 -->
<g id="node32" class="node">
<title>node31</title>
<ellipse fill="none" stroke="black" cx="977" cy="-18" rx="27" ry="18"/>
<text text-anchor="middle" x="977" y="-14.3" font-family="Times,serif" font-size="14.00">11</text>
</g>
<!-- node26&#45;&gt;node31 -->
<g id="edge31" class="edge">
<title>node26&#45;&gt;node31</title>
<path fill="none" stroke="black" d="M867.12,-72.41C890.82,-60.89 922.16,-45.66 945.3,-34.41"/>
<polygon fill="black" stroke="black" points="946.8,-37.57 954.26,-30.05 943.74,-31.28 946.8,-37.57"/>
</g>
</g>
</svg>
